<svg width="102" height="111" viewBox="0 0 102 111" fill="none" xmlns="http://www.w3.org/2000/svg">
<path d="M42.6149 110.645C50.3324 110.645 56.7883 105.143 58.2708 97.8613H26.959C28.4423 105.143 34.8981 110.645 42.6149 110.645Z" fill="#1BAFF9"/>
<path d="M72.495 59.5058C72.4778 59.5058 72.4606 59.5098 72.4435 59.5098C55.9995 59.5098 42.6149 46.1291 42.6149 29.6812C42.6149 25.1596 43.655 20.8854 45.466 17.0418C44.5281 16.9529 43.5778 16.8975 42.6149 16.8975C26.1413 16.8975 12.7864 30.2516 12.7864 46.726V58.6062C12.7864 67.0392 9.09189 74.9994 2.61028 80.4792C0.449742 82.3245 -0.509197 85.2645 0.266381 88.1328C1.16992 91.4692 4.46808 93.6 7.92852 93.6H77.2803C80.9108 93.6 84.3331 91.2476 85.0696 87.6896C85.6408 84.9368 84.6608 82.188 82.526 80.3942C76.3299 75.2 72.7462 67.5675 72.495 59.5058Z" fill="#1BAFF9"/>
<path d="M77.4029 59.7736C77.3846 59.7736 77.3662 59.7775 77.3479 59.7775C59.7907 59.7775 45.5 46.345 45.5 29.8333C45.5 25.2942 46.6105 21.0034 48.5441 17.1449C47.5427 17.0556 46.528 17 45.5 17C27.9111 17 13.6521 30.4059 13.6521 46.9442V58.8705C13.6521 67.3362 9.70742 75.3273 2.787 80.8283C0.48019 82.6808 -0.543669 85.6322 0.284415 88.5115C1.24913 91.8609 4.77057 94 8.46529 94H82.5122C86.3885 94 90.0424 91.6384 90.8289 88.0666C91.4387 85.3032 90.3923 82.5437 88.113 80.7429C81.4975 75.5286 77.6712 67.8665 77.4029 59.7736Z" fill="#1BAFF9"/>
<path d="M93.75 29.6815C93.75 41.4486 84.2113 50.9873 72.4434 50.9873C60.6764 50.9873 51.1377 41.4486 51.1377 29.6815C51.1377 17.9144 60.6764 8.375 72.4434 8.375C84.2113 8.375 93.75 17.9144 93.75 29.6815Z" fill="#FF0000"/>
<path d="M62 30L69.5 37.5L82 22.5" stroke="white" stroke-width="5"/>
</svg>
