<svg width="41" height="42" viewBox="0 0 41 42" fill="none" xmlns="http://www.w3.org/2000/svg">
<path d="M18.8628 40.1493C21.7704 40.1493 24.2027 38.0766 24.7612 35.333H12.9644C13.5232 38.0766 15.9555 40.1493 18.8628 40.1493Z" fill="black"/>
<path d="M30.1199 20.881C30.1134 20.881 30.107 20.8825 30.1005 20.8825C23.9052 20.8825 18.8625 15.8412 18.8625 9.64446C18.8625 7.94093 19.2543 6.33058 19.9366 4.88251C19.5833 4.849 19.2252 4.82812 18.8625 4.82812C12.656 4.82812 7.62446 9.85934 7.62446 16.0661V20.5421C7.62446 23.7192 6.23253 26.7183 3.79056 28.7828C2.97657 29.478 2.61529 30.5857 2.90749 31.6663C3.2479 32.9233 4.49049 33.7261 5.79423 33.7261H31.9228C33.2906 33.7261 34.5799 32.8398 34.8574 31.4993C35.0726 30.4622 34.7034 29.4266 33.8991 28.7507C31.5647 26.7938 30.2145 23.9182 30.1199 20.881Z" fill="black"/>
<path d="M30.1199 20.881C30.1134 20.881 30.107 20.8825 30.1005 20.8825C23.9052 20.8825 18.8625 15.8412 18.8625 9.64446C18.8625 7.94093 19.2543 6.33058 19.9366 4.88251C19.5833 4.849 19.2252 4.82812 18.8625 4.82812C12.656 4.82812 7.62446 9.85934 7.62446 16.0661V20.5421C7.62446 23.7192 6.23253 26.7183 3.79056 28.7828C2.97657 29.478 2.61529 30.5857 2.90749 31.6663C3.2479 32.9233 4.49049 33.7261 5.79423 33.7261H31.9228C33.2906 33.7261 34.5799 32.8398 34.8574 31.4993C35.0726 30.4622 34.7034 29.4266 33.8991 28.7507C31.5647 26.7938 30.2145 23.9182 30.1199 20.881Z" fill="black"/>
<path d="M7.84243 20.9823C7.8489 20.9823 7.85537 20.9838 7.86184 20.9838C14.0586 20.9838 19.1025 15.923 19.1025 9.70219C19.1025 7.99206 18.7105 6.37547 18.0281 4.92178C18.3815 4.88814 18.7397 4.86719 19.1025 4.86719C25.3105 4.86719 30.3432 9.91792 30.3432 16.1488V20.642C30.3432 23.8315 31.7354 26.8422 34.178 28.9147C34.9921 29.6127 35.3535 30.7246 35.0612 31.8094C34.7207 33.0713 33.4779 33.8772 32.1738 33.8772H6.03912C4.67097 33.8772 3.38133 32.9875 3.10376 31.6418C2.88853 30.6007 3.25784 29.561 4.06232 28.8826C6.39725 26.9181 7.74775 24.0313 7.84243 20.9823Z" fill="black"/>
<rect x="17.4531" y="7.87793" width="3.01403" height="3.76754" fill="black"/>
<line x1="2.31205" y1="2.01203" x2="38.4804" y2="40.0642" stroke="white" stroke-width="5"/>
<rect x="3.24951" y="2.34863" width="48.9727" height="2.13035" rx="1.06517" transform="rotate(46.5 3.24951 2.34863)" fill="black"/>
</svg>
