<svg width="36" height="34" viewBox="0 0 36 34" fill="none" xmlns="http://www.w3.org/2000/svg">
<path d="M17.9999 32.375L2.24275 17.2093C1.80056 16.7837 1.57947 16.571 1.51033 16.2901C1.44118 16.0092 1.53822 15.7181 1.73229 15.1359L4.77908 5.99551C5.13095 4.9399 5.30689 4.4121 5.70119 4.05836C6.09549 3.70463 6.63922 3.58681 7.7267 3.35115L17.1527 1.30857C17.5747 1.21714 17.7857 1.17142 17.9999 1.17142C18.2141 1.17142 18.4251 1.21714 18.847 1.30858L28.2727 3.35114C29.3601 3.5868 29.9039 3.70463 30.2982 4.05836C30.6925 4.41209 30.8684 4.93989 31.2203 5.9955L34.2671 15.1359C34.4611 15.7181 34.5582 16.0092 34.489 16.2901C34.4199 16.571 34.1988 16.7837 33.7566 17.2093L17.9999 32.375ZM17.9999 32.375L25.2913 14.2504M17.9999 32.375L10.708 14.2504M33.6247 16.3337L25.2913 14.2504M25.2913 14.2504L21.7499 1.93764M25.2913 14.2504H10.708M14.2498 1.93764L10.708 14.2504M10.708 14.2504L2.37467 16.3337" stroke="#C4B420" stroke-width="2" stroke-linecap="round"/>
</svg>
