<svg width="20" height="20" viewBox="0 0 20 20" fill="none" xmlns="http://www.w3.org/2000/svg">
<path d="M8.7386 0.0177638L2.60753 1.08096C1.63672 1.22463 0.906982 2.13697 0.906982 3.22172V16.4829C0.906982 17.5677 1.63672 18.48 2.60753 18.6237L8.7386 19.6869C8.82331 19.7012 8.90801 19.7012 8.98619 19.7012C9.46182 19.7012 9.91791 19.5145 10.2763 19.1696C10.6998 18.7602 10.9408 18.1711 10.9408 17.5461V2.15852C10.9408 1.53353 10.6998 0.944467 10.2763 0.534994C9.85927 0.12552 9.29242 -0.0612574 8.7386 0.0177638Z" fill="#1BAFF9"/>
<path d="M17.0919 2.28125H12.2444V9.12018H14.3489L13.6778 8.45927C13.4107 8.19347 13.3911 7.7409 13.6257 7.44636C13.8667 7.15183 14.2772 7.1231 14.5509 7.38889L16.486 9.29977C16.6163 9.43626 16.701 9.63022 16.701 9.83855C16.701 10.0469 16.6163 10.2408 16.486 10.3773L14.5509 12.2882C14.4271 12.4103 14.2707 12.4678 14.1143 12.4678C13.9319 12.4678 13.756 12.3888 13.6257 12.2307C13.3911 11.9362 13.4107 11.4836 13.6778 11.2178L14.3489 10.5569H12.2444V17.4246H17.0919C18.1735 17.4246 19.0466 16.4548 19.0466 15.2695V4.43637C19.0466 3.25106 18.1735 2.28125 17.0919 2.28125Z" fill="#1BAFF9"/>
</svg>
