<svg width="107" height="112" viewBox="0 0 107 112" fill="none" xmlns="http://www.w3.org/2000/svg">
<path d="M78.62 56.5058C78.6028 56.5058 78.5856 56.5097 78.5685 56.5097C62.1245 56.5097 48.7399 43.1291 48.7399 26.6812C48.7399 22.1596 49.78 17.8854 51.591 14.0418C50.6531 13.9529 49.7028 13.8975 48.7399 13.8975C32.2663 13.8975 18.9114 27.2516 18.9114 43.726V55.6062C18.9114 64.0392 15.2169 71.9994 8.73528 77.4792C6.57474 79.3245 5.6158 82.2645 6.39138 85.1328C7.29492 88.4692 10.5931 90.6 14.0535 90.6H83.4053C87.0358 90.6 90.4581 88.2476 91.1946 84.6896C91.7658 81.9368 90.7858 79.188 88.651 77.3942C82.4549 72.2 78.8712 64.5675 78.62 56.5058Z" fill="black"/>
<rect x="45" y="22" width="8" height="10" fill="black"/>
<path d="M48.7399 107.645C56.4574 107.645 62.9133 102.143 64.3958 94.8613H33.084C34.5673 102.143 41.0231 107.645 48.7399 107.645Z" fill="black"/>
<path d="M78.62 56.5058C78.6028 56.5058 78.5856 56.5098 78.5685 56.5098C62.1245 56.5098 48.7399 43.1291 48.7399 26.6812C48.7399 22.1596 49.78 17.8854 51.591 14.0418C50.6531 13.9529 49.7028 13.8975 48.7399 13.8975C32.2663 13.8975 18.9114 27.2516 18.9114 43.726V55.6062C18.9114 64.0392 15.2169 71.9994 8.73528 77.4792C6.57474 79.3245 5.6158 82.2645 6.39138 85.1328C7.29492 88.4692 10.5931 90.6 14.0535 90.6H83.4053C87.0358 90.6 90.4581 88.2476 91.1946 84.6896C91.7658 81.9368 90.7858 79.188 88.651 77.3942C82.4549 72.2 78.8712 64.5675 78.62 56.5058Z" fill="black"/>
<path d="M19.488 56.7736C19.5051 56.7736 19.5223 56.7775 19.5395 56.7775C35.9873 56.7775 49.375 43.345 49.375 26.8333C49.375 22.2942 48.3347 18.0034 46.5233 14.1449C47.4614 14.0556 48.4119 14 49.375 14C65.8525 14 79.2106 27.4059 79.2106 43.9442V55.8705C79.2106 64.3362 82.906 72.3273 89.3891 77.8283C91.5502 79.6808 92.5093 82.6322 91.7336 85.5115C90.8298 88.8609 87.5309 91 84.0696 91H14.7015C11.0701 91 7.64707 88.6384 6.91033 85.0666C6.33905 82.3032 7.31928 79.5437 9.45457 77.7429C15.6521 72.5286 19.2366 64.8665 19.488 56.7736Z" fill="black"/>
<line x1="5.43615" y1="5.83296" x2="101.436" y2="106.833" stroke="white" stroke-width="15"/>
<rect x="11.1782" y="6.08398" width="129.986" height="9" rx="4.5" transform="rotate(46 11.1782 6.08398)" fill="black"/>
</svg>
