<svg width="150" height="185" viewBox="0 0 150 185" fill="none" xmlns="http://www.w3.org/2000/svg">
<path d="M100.62 75.5058C100.603 75.5058 100.586 75.5098 100.568 75.5098C84.1245 75.5098 70.7399 62.1291 70.7399 45.6812C70.7399 41.1596 71.78 36.8854 73.591 33.0418C72.6531 32.9529 71.7028 32.8975 70.7399 32.8975C54.2663 32.8975 40.9114 46.2516 40.9114 62.726V74.6062C40.9114 83.0392 37.2169 90.9994 30.7353 96.4792C28.5747 98.3245 27.6158 101.265 28.3914 104.133C29.2949 107.469 32.5931 109.6 36.0535 109.6H105.405C109.036 109.6 112.458 107.248 113.195 103.69C113.766 100.937 112.786 98.188 110.651 96.3942C104.455 91.2 100.871 83.5675 100.62 75.5058Z" fill="black"/>
<rect x="67" y="41" width="8" height="10" fill="black"/>
<path d="M70.7399 126.645C78.4574 126.645 84.9133 121.143 86.3958 113.861H55.084C56.5673 121.143 63.0231 126.645 70.7399 126.645Z" fill="black"/>
<path d="M100.62 75.5058C100.603 75.5058 100.586 75.5098 100.568 75.5098C84.1245 75.5098 70.7399 62.1291 70.7399 45.6812C70.7399 41.1596 71.78 36.8854 73.591 33.0418C72.6531 32.9529 71.7028 32.8975 70.7399 32.8975C54.2663 32.8975 40.9114 46.2516 40.9114 62.726V74.6062C40.9114 83.0392 37.2169 90.9994 30.7353 96.4792C28.5747 98.3245 27.6158 101.265 28.3914 104.133C29.2949 107.469 32.5931 109.6 36.0535 109.6H105.405C109.036 109.6 112.458 107.248 113.195 103.69C113.766 100.937 112.786 98.188 110.651 96.3942C104.455 91.2 100.871 83.5675 100.62 75.5058Z" fill="black"/>
<path d="M41.488 75.7736C41.5051 75.7736 41.5223 75.7775 41.5395 75.7775C57.9873 75.7775 71.375 62.345 71.375 45.8333C71.375 41.2942 70.3347 37.0034 68.5233 33.1449C69.4614 33.0556 70.4119 33 71.375 33C87.8525 33 101.211 46.4059 101.211 62.9442V74.8705C101.211 83.3362 104.906 91.3273 111.389 96.8283C113.55 98.6808 114.509 101.632 113.734 104.512C112.83 107.861 109.531 110 106.07 110H36.7015C33.0701 110 29.6471 107.638 28.9103 104.067C28.3391 101.303 29.3193 98.5437 31.4546 96.7429C37.6521 91.5286 41.2366 83.8665 41.488 75.7736Z" fill="black"/>
<line x1="27.4362" y1="24.833" x2="123.436" y2="125.833" stroke="white" stroke-width="15"/>
<rect x="33.1782" y="25.084" width="129.986" height="9" rx="4.5" transform="rotate(46 33.1782 25.084)" fill="black"/>
<path d="M33.8054 153.364H36.1861L39.0327 158.511H39.1463L41.9929 153.364H44.3736L40.1406 160.659V165H38.0384V160.659L33.8054 153.364ZM47.9574 165.17C47.1051 165.17 46.3665 164.983 45.7415 164.608C45.1165 164.233 44.6316 163.708 44.2869 163.034C43.946 162.36 43.7756 161.572 43.7756 160.67C43.7756 159.769 43.946 158.979 44.2869 158.301C44.6316 157.623 45.1165 157.097 45.7415 156.722C46.3665 156.347 47.1051 156.159 47.9574 156.159C48.8097 156.159 49.5483 156.347 50.1733 156.722C50.7983 157.097 51.2813 157.623 51.6222 158.301C51.9669 158.979 52.1392 159.769 52.1392 160.67C52.1392 161.572 51.9669 162.36 51.6222 163.034C51.2813 163.708 50.7983 164.233 50.1733 164.608C49.5483 164.983 48.8097 165.17 47.9574 165.17ZM47.9688 163.523C48.4309 163.523 48.8172 163.396 49.1278 163.142C49.4384 162.884 49.6695 162.54 49.821 162.108C49.9763 161.676 50.054 161.195 50.054 160.665C50.054 160.131 49.9763 159.648 49.821 159.216C49.6695 158.78 49.4384 158.434 49.1278 158.176C48.8172 157.919 48.4309 157.79 47.9688 157.79C47.4953 157.79 47.1013 157.919 46.7869 158.176C46.4763 158.434 46.2434 158.78 46.0881 159.216C45.9366 159.648 45.8608 160.131 45.8608 160.665C45.8608 161.195 45.9366 161.676 46.0881 162.108C46.2434 162.54 46.4763 162.884 46.7869 163.142C47.1013 163.396 47.4953 163.523 47.9688 163.523ZM59.4474 161.33V156.273H61.5043V165H59.5099V163.449H59.419C59.2221 163.937 58.8982 164.337 58.4474 164.648C58.0005 164.958 57.4493 165.114 56.794 165.114C56.2221 165.114 55.7164 164.987 55.277 164.733C54.8414 164.475 54.5005 164.102 54.2543 163.614C54.008 163.121 53.8849 162.527 53.8849 161.83V156.273H55.9418V161.511C55.9418 162.064 56.0933 162.504 56.3963 162.83C56.6993 163.155 57.0971 163.318 57.5895 163.318C57.8925 163.318 58.1861 163.244 58.4702 163.097C58.7543 162.949 58.9872 162.729 59.169 162.438C59.3546 162.142 59.4474 161.773 59.4474 161.33ZM71.3835 168.455C70.6449 168.455 70.0104 168.354 69.4801 168.153C68.9498 167.956 68.5237 167.691 68.2017 167.358C67.8797 167.025 67.6562 166.655 67.5312 166.25L69.3835 165.801C69.4669 165.972 69.5881 166.14 69.7472 166.307C69.9063 166.477 70.1203 166.617 70.3892 166.727C70.6619 166.841 71.0047 166.898 71.4176 166.898C72.0009 166.898 72.4839 166.756 72.8665 166.472C73.2491 166.191 73.4403 165.729 73.4403 165.085V163.432H73.3381C73.232 163.644 73.0767 163.862 72.8722 164.085C72.6714 164.309 72.4044 164.496 72.071 164.648C71.7415 164.799 71.3267 164.875 70.8267 164.875C70.1562 164.875 69.5483 164.718 69.0028 164.403C68.4612 164.085 68.0294 163.612 67.7074 162.983C67.3892 162.35 67.2301 161.559 67.2301 160.608C67.2301 159.65 67.3892 158.841 67.7074 158.182C68.0294 157.519 68.4631 157.017 69.0085 156.676C69.554 156.331 70.1619 156.159 70.8324 156.159C71.3438 156.159 71.7642 156.246 72.0938 156.42C72.4271 156.591 72.6922 156.797 72.8892 157.04C73.0862 157.278 73.2358 157.504 73.3381 157.716H73.4517V156.273H75.4801V165.142C75.4801 165.888 75.3021 166.506 74.946 166.994C74.59 167.483 74.1032 167.848 73.4858 168.091C72.8684 168.333 72.1676 168.455 71.3835 168.455ZM71.4006 163.261C71.8362 163.261 72.2074 163.155 72.5142 162.943C72.821 162.731 73.054 162.426 73.2131 162.028C73.3722 161.631 73.4517 161.153 73.4517 160.597C73.4517 160.047 73.3722 159.566 73.2131 159.153C73.0578 158.741 72.8267 158.42 72.5199 158.193C72.2169 157.962 71.8438 157.847 71.4006 157.847C70.9422 157.847 70.5597 157.966 70.2528 158.205C69.946 158.443 69.715 158.771 69.5597 159.188C69.4044 159.6 69.3267 160.07 69.3267 160.597C69.3267 161.131 69.4044 161.598 69.5597 162C69.7188 162.398 69.9517 162.708 70.2585 162.932C70.5691 163.152 70.9498 163.261 71.4006 163.261ZM81.4517 165.17C80.5767 165.17 79.821 164.989 79.1847 164.625C78.5521 164.258 78.0653 163.739 77.7244 163.068C77.3835 162.394 77.2131 161.6 77.2131 160.688C77.2131 159.79 77.3835 159.002 77.7244 158.324C78.0691 157.642 78.5502 157.112 79.1676 156.733C79.785 156.35 80.5104 156.159 81.3438 156.159C81.8816 156.159 82.3892 156.246 82.8665 156.42C83.3475 156.591 83.7718 156.856 84.1392 157.216C84.5104 157.576 84.8021 158.034 85.0142 158.591C85.2263 159.144 85.3324 159.803 85.3324 160.568V161.199H78.179V159.812H83.3608C83.357 159.419 83.2718 159.068 83.1051 158.761C82.9384 158.451 82.7055 158.206 82.4062 158.028C82.1108 157.85 81.7661 157.761 81.3722 157.761C80.9517 157.761 80.5824 157.864 80.2642 158.068C79.946 158.269 79.6979 158.534 79.5199 158.864C79.3456 159.189 79.2566 159.547 79.2528 159.938V161.148C79.2528 161.655 79.3456 162.091 79.5312 162.455C79.7169 162.814 79.9763 163.091 80.3097 163.284C80.643 163.473 81.0331 163.568 81.4801 163.568C81.7794 163.568 82.0502 163.527 82.2926 163.443C82.535 163.356 82.7453 163.229 82.9233 163.062C83.1013 162.896 83.2358 162.689 83.3267 162.443L85.2472 162.659C85.1259 163.167 84.8949 163.61 84.554 163.989C84.2169 164.364 83.785 164.655 83.2585 164.864C82.732 165.068 82.1297 165.17 81.4517 165.17ZM91.4304 156.273V157.864H86.4134V156.273H91.4304ZM87.652 154.182H89.7088V162.375C89.7088 162.652 89.7505 162.864 89.8338 163.011C89.9209 163.155 90.0346 163.254 90.1747 163.307C90.3149 163.36 90.4702 163.386 90.6406 163.386C90.7694 163.386 90.8868 163.377 90.9929 163.358C91.1027 163.339 91.1861 163.322 91.2429 163.307L91.5895 164.915C91.4796 164.953 91.3224 164.994 91.1179 165.04C90.9171 165.085 90.6709 165.112 90.3793 165.119C89.8641 165.134 89.4001 165.057 88.9872 164.886C88.5743 164.712 88.2467 164.443 88.0043 164.08C87.7656 163.716 87.6482 163.261 87.652 162.716V154.182ZM99.1761 159.886V165H97.1193V156.273H99.0852V157.756H99.1875C99.3883 157.267 99.7083 156.879 100.148 156.591C100.591 156.303 101.138 156.159 101.79 156.159C102.392 156.159 102.917 156.288 103.364 156.545C103.814 156.803 104.163 157.176 104.409 157.665C104.659 158.153 104.782 158.746 104.778 159.443V165H102.722V159.761C102.722 159.178 102.57 158.722 102.267 158.392C101.968 158.062 101.553 157.898 101.023 157.898C100.663 157.898 100.343 157.977 100.062 158.136C99.786 158.292 99.5682 158.517 99.4091 158.812C99.2538 159.108 99.1761 159.466 99.1761 159.886ZM110.676 165.17C109.824 165.17 109.085 164.983 108.46 164.608C107.835 164.233 107.35 163.708 107.006 163.034C106.665 162.36 106.494 161.572 106.494 160.67C106.494 159.769 106.665 158.979 107.006 158.301C107.35 157.623 107.835 157.097 108.46 156.722C109.085 156.347 109.824 156.159 110.676 156.159C111.528 156.159 112.267 156.347 112.892 156.722C113.517 157.097 114 157.623 114.341 158.301C114.686 158.979 114.858 159.769 114.858 160.67C114.858 161.572 114.686 162.36 114.341 163.034C114 163.708 113.517 164.233 112.892 164.608C112.267 164.983 111.528 165.17 110.676 165.17ZM110.688 163.523C111.15 163.523 111.536 163.396 111.847 163.142C112.157 162.884 112.388 162.54 112.54 162.108C112.695 161.676 112.773 161.195 112.773 160.665C112.773 160.131 112.695 159.648 112.54 159.216C112.388 158.78 112.157 158.434 111.847 158.176C111.536 157.919 111.15 157.79 110.688 157.79C110.214 157.79 109.82 157.919 109.506 158.176C109.195 158.434 108.962 158.78 108.807 159.216C108.655 159.648 108.58 160.131 108.58 160.665C108.58 161.195 108.655 161.676 108.807 162.108C108.962 162.54 109.195 162.884 109.506 163.142C109.82 163.396 110.214 163.523 110.688 163.523ZM35.718 172.364V184H33.843L28.3601 176.074H28.2635V184H26.1555V172.364H28.0419L33.5192 180.295H33.6214V172.364H35.718ZM41.7308 184.17C40.8786 184.17 40.1399 183.983 39.5149 183.608C38.8899 183.233 38.4051 182.708 38.0604 182.034C37.7195 181.36 37.549 180.572 37.549 179.67C37.549 178.769 37.7195 177.979 38.0604 177.301C38.4051 176.623 38.8899 176.097 39.5149 175.722C40.1399 175.347 40.8786 175.159 41.7308 175.159C42.5831 175.159 43.3217 175.347 43.9467 175.722C44.5717 176.097 45.0547 176.623 45.3956 177.301C45.7403 177.979 45.9126 178.769 45.9126 179.67C45.9126 180.572 45.7403 181.36 45.3956 182.034C45.0547 182.708 44.5717 183.233 43.9467 183.608C43.3217 183.983 42.5831 184.17 41.7308 184.17ZM41.7422 182.523C42.2043 182.523 42.5907 182.396 42.9013 182.142C43.2119 181.884 43.4429 181.54 43.5945 181.108C43.7498 180.676 43.8274 180.195 43.8274 179.665C43.8274 179.131 43.7498 178.648 43.5945 178.216C43.4429 177.78 43.2119 177.434 42.9013 177.176C42.5907 176.919 42.2043 176.79 41.7422 176.79C41.2687 176.79 40.8748 176.919 40.5604 177.176C40.2498 177.434 40.0168 177.78 39.8615 178.216C39.71 178.648 39.6342 179.131 39.6342 179.665C39.6342 180.195 39.71 180.676 39.8615 181.108C40.0168 181.54 40.2498 181.884 40.5604 182.142C40.8748 182.396 41.2687 182.523 41.7422 182.523ZM52.0163 175.273V176.864H46.9993V175.273H52.0163ZM48.2379 173.182H50.2947V181.375C50.2947 181.652 50.3364 181.864 50.4197 182.011C50.5069 182.155 50.6205 182.254 50.7607 182.307C50.9008 182.36 51.0561 182.386 51.2266 182.386C51.3554 182.386 51.4728 182.377 51.5788 182.358C51.6887 182.339 51.772 182.322 51.8288 182.307L52.1754 183.915C52.0656 183.953 51.9084 183.994 51.7038 184.04C51.5031 184.085 51.2569 184.112 50.9652 184.119C50.45 184.134 49.986 184.057 49.5732 183.886C49.1603 183.712 48.8326 183.443 48.5902 183.08C48.3516 182.716 48.2341 182.261 48.2379 181.716V173.182ZM53.7365 184V175.273H55.7933V184H53.7365ZM54.7706 174.034C54.4448 174.034 54.1645 173.926 53.9297 173.71C53.6948 173.491 53.5774 173.227 53.5774 172.92C53.5774 172.61 53.6948 172.347 53.9297 172.131C54.1645 171.911 54.4448 171.801 54.7706 171.801C55.1001 171.801 55.3804 171.911 55.6115 172.131C55.8464 172.347 55.9638 172.61 55.9638 172.92C55.9638 173.227 55.8464 173.491 55.6115 173.71C55.3804 173.926 55.1001 174.034 54.7706 174.034ZM62.3288 175.273V176.864H57.1697V175.273H62.3288ZM58.4595 184V174.449C58.4595 173.862 58.5807 173.373 58.8232 172.983C59.0694 172.593 59.3989 172.301 59.8118 172.108C60.2247 171.915 60.683 171.818 61.1868 171.818C61.5429 171.818 61.8591 171.847 62.1357 171.903C62.4122 171.96 62.6167 172.011 62.7493 172.057L62.3402 173.648C62.2531 173.621 62.1432 173.595 62.0107 173.568C61.8781 173.538 61.7304 173.523 61.5675 173.523C61.1849 173.523 60.9141 173.616 60.755 173.801C60.5997 173.983 60.522 174.244 60.522 174.585V184H58.4595ZM63.9396 184V175.273H65.9964V184H63.9396ZM64.9737 174.034C64.648 174.034 64.3677 173.926 64.1328 173.71C63.898 173.491 63.7805 173.227 63.7805 172.92C63.7805 172.61 63.898 172.347 64.1328 172.131C64.3677 171.911 64.648 171.801 64.9737 171.801C65.3033 171.801 65.5836 171.911 65.8146 172.131C66.0495 172.347 66.1669 172.61 66.1669 172.92C66.1669 173.227 66.0495 173.491 65.8146 173.71C65.5836 173.926 65.3033 174.034 64.9737 174.034ZM71.9183 184.17C71.0471 184.17 70.299 183.979 69.674 183.597C69.0528 183.214 68.5736 182.686 68.2365 182.011C67.9032 181.333 67.7365 180.553 67.7365 179.67C67.7365 178.784 67.907 178.002 68.2479 177.324C68.5888 176.642 69.0698 176.112 69.6911 175.733C70.3161 175.35 71.0547 175.159 71.907 175.159C72.6153 175.159 73.2422 175.29 73.7876 175.551C74.3369 175.809 74.7744 176.174 75.1001 176.648C75.4259 177.117 75.6115 177.667 75.657 178.295H73.6911C73.6115 177.875 73.4221 177.525 73.1229 177.244C72.8274 176.96 72.4316 176.818 71.9354 176.818C71.5149 176.818 71.1456 176.932 70.8274 177.159C70.5092 177.383 70.2611 177.705 70.0831 178.125C69.9089 178.545 69.8217 179.049 69.8217 179.636C69.8217 180.231 69.9089 180.742 70.0831 181.17C70.2573 181.595 70.5017 181.922 70.8161 182.153C71.1342 182.381 71.5073 182.494 71.9354 182.494C72.2384 182.494 72.5092 182.437 72.7479 182.324C72.9903 182.206 73.1929 182.038 73.3558 181.818C73.5187 181.598 73.6304 181.331 73.6911 181.017H75.657C75.6077 181.634 75.4259 182.182 75.1115 182.659C74.7971 183.133 74.3691 183.504 73.8274 183.773C73.2857 184.038 72.6494 184.17 71.9183 184.17ZM79.8572 184.176C79.3042 184.176 78.8061 184.078 78.3629 183.881C77.9235 183.68 77.575 183.384 77.3175 182.994C77.0637 182.604 76.9368 182.123 76.9368 181.551C76.9368 181.059 77.0277 180.652 77.2095 180.33C77.3913 180.008 77.6394 179.75 77.9538 179.557C78.2682 179.364 78.6224 179.218 79.0163 179.119C79.4141 179.017 79.825 178.943 80.2493 178.898C80.7607 178.845 81.1754 178.797 81.4936 178.756C81.8118 178.71 82.0429 178.642 82.1868 178.551C82.3345 178.456 82.4084 178.311 82.4084 178.114V178.08C82.4084 177.652 82.2815 177.32 82.0277 177.085C81.7739 176.85 81.4084 176.733 80.9311 176.733C80.4273 176.733 80.0277 176.843 79.7322 177.062C79.4406 177.282 79.2436 177.542 79.1413 177.841L77.2209 177.568C77.3724 177.038 77.6224 176.595 77.9709 176.239C78.3194 175.879 78.7455 175.61 79.2493 175.432C79.7531 175.25 80.3099 175.159 80.9197 175.159C81.3402 175.159 81.7588 175.208 82.1754 175.307C82.5921 175.405 82.9728 175.568 83.3175 175.795C83.6622 176.019 83.9387 176.324 84.147 176.71C84.3591 177.097 84.4652 177.58 84.4652 178.159V184H82.4879V182.801H82.4197C82.2947 183.044 82.1186 183.271 81.8913 183.483C81.6679 183.691 81.3857 183.86 81.0447 183.989C80.7076 184.114 80.3118 184.176 79.8572 184.176ZM80.3913 182.665C80.8042 182.665 81.1622 182.583 81.4652 182.42C81.7682 182.254 82.0012 182.034 82.1641 181.761C82.3307 181.489 82.4141 181.191 82.4141 180.869V179.841C82.3497 179.894 82.2398 179.943 82.0845 179.989C81.933 180.034 81.7625 180.074 81.5732 180.108C81.3838 180.142 81.1963 180.172 81.0107 180.199C80.825 180.225 80.6641 180.248 80.5277 180.267C80.2209 180.309 79.9463 180.377 79.7038 180.472C79.4614 180.566 79.2701 180.699 79.13 180.869C78.9898 181.036 78.9197 181.252 78.9197 181.517C78.9197 181.896 79.058 182.182 79.3345 182.375C79.611 182.568 79.9633 182.665 80.3913 182.665ZM90.8913 175.273V176.864H85.8743V175.273H90.8913ZM87.1129 173.182H89.1697V181.375C89.1697 181.652 89.2114 181.864 89.2947 182.011C89.3819 182.155 89.4955 182.254 89.6357 182.307C89.7758 182.36 89.9311 182.386 90.1016 182.386C90.2304 182.386 90.3478 182.377 90.4538 182.358C90.5637 182.339 90.647 182.322 90.7038 182.307L91.0504 183.915C90.9406 183.953 90.7834 183.994 90.5788 184.04C90.3781 184.085 90.1319 184.112 89.8402 184.119C89.325 184.134 88.861 184.057 88.4482 183.886C88.0353 183.712 87.7076 183.443 87.4652 183.08C87.2266 182.716 87.1091 182.261 87.1129 181.716V173.182ZM92.6115 184V175.273H94.6683V184H92.6115ZM93.6456 174.034C93.3198 174.034 93.0395 173.926 92.8047 173.71C92.5698 173.491 92.4524 173.227 92.4524 172.92C92.4524 172.61 92.5698 172.347 92.8047 172.131C93.0395 171.911 93.3198 171.801 93.6456 171.801C93.9751 171.801 94.2554 171.911 94.4865 172.131C94.7214 172.347 94.8388 172.61 94.8388 172.92C94.8388 173.227 94.7214 173.491 94.4865 173.71C94.2554 173.926 93.9751 174.034 93.6456 174.034ZM100.59 184.17C99.7379 184.17 98.9993 183.983 98.3743 183.608C97.7493 183.233 97.2644 182.708 96.9197 182.034C96.5788 181.36 96.4084 180.572 96.4084 179.67C96.4084 178.769 96.5788 177.979 96.9197 177.301C97.2644 176.623 97.7493 176.097 98.3743 175.722C98.9993 175.347 99.7379 175.159 100.59 175.159C101.442 175.159 102.181 175.347 102.806 175.722C103.431 176.097 103.914 176.623 104.255 177.301C104.6 177.979 104.772 178.769 104.772 179.67C104.772 180.572 104.6 181.36 104.255 182.034C103.914 182.708 103.431 183.233 102.806 183.608C102.181 183.983 101.442 184.17 100.59 184.17ZM100.602 182.523C101.064 182.523 101.45 182.396 101.761 182.142C102.071 181.884 102.302 181.54 102.454 181.108C102.609 180.676 102.687 180.195 102.687 179.665C102.687 179.131 102.609 178.648 102.454 178.216C102.302 177.78 102.071 177.434 101.761 177.176C101.45 176.919 101.064 176.79 100.602 176.79C100.128 176.79 99.7341 176.919 99.4197 177.176C99.1091 177.434 98.8762 177.78 98.7209 178.216C98.5694 178.648 98.4936 179.131 98.4936 179.665C98.4936 180.195 98.5694 180.676 98.7209 181.108C98.8762 181.54 99.1091 181.884 99.4197 182.142C99.7341 182.396 100.128 182.523 100.602 182.523ZM108.575 178.886V184H106.518V175.273H108.484V176.756H108.586C108.787 176.267 109.107 175.879 109.546 175.591C109.989 175.303 110.537 175.159 111.188 175.159C111.79 175.159 112.315 175.288 112.762 175.545C113.213 175.803 113.561 176.176 113.808 176.665C114.058 177.153 114.181 177.746 114.177 178.443V184H112.12V178.761C112.12 178.178 111.969 177.722 111.665 177.392C111.366 177.062 110.951 176.898 110.421 176.898C110.061 176.898 109.741 176.977 109.461 177.136C109.184 177.292 108.967 177.517 108.808 177.812C108.652 178.108 108.575 178.466 108.575 178.886ZM123.165 177.58L121.29 177.784C121.237 177.595 121.145 177.417 121.012 177.25C120.883 177.083 120.709 176.949 120.489 176.847C120.27 176.744 120.001 176.693 119.683 176.693C119.254 176.693 118.895 176.786 118.603 176.972C118.315 177.157 118.173 177.398 118.177 177.693C118.173 177.947 118.266 178.153 118.455 178.312C118.648 178.472 118.967 178.602 119.41 178.705L120.898 179.023C121.724 179.201 122.338 179.483 122.739 179.869C123.145 180.256 123.349 180.761 123.353 181.386C123.349 181.936 123.188 182.42 122.87 182.841C122.556 183.258 122.118 183.583 121.558 183.818C120.997 184.053 120.353 184.17 119.626 184.17C118.558 184.17 117.698 183.947 117.046 183.5C116.395 183.049 116.006 182.422 115.881 181.619L117.887 181.426C117.978 181.82 118.171 182.117 118.467 182.318C118.762 182.519 119.147 182.619 119.62 182.619C120.109 182.619 120.501 182.519 120.796 182.318C121.095 182.117 121.245 181.869 121.245 181.574C121.245 181.324 121.148 181.117 120.955 180.955C120.766 180.792 120.47 180.667 120.069 180.58L118.58 180.267C117.743 180.093 117.124 179.799 116.722 179.386C116.321 178.97 116.122 178.443 116.126 177.807C116.122 177.269 116.268 176.803 116.563 176.409C116.862 176.011 117.277 175.705 117.808 175.489C118.342 175.269 118.957 175.159 119.654 175.159C120.677 175.159 121.482 175.377 122.069 175.812C122.66 176.248 123.025 176.837 123.165 177.58Z" fill="black"/>
</svg>
