<svg width="350" height="350" viewBox="0 0 350 350" fill="none" xmlns="http://www.w3.org/2000/svg">
<path d="M131.25 78.75V131.25H78.75V78.75H131.25ZM157.5 52.5H52.5V157.5H157.5V52.5ZM131.25 218.75V271.25H78.75V218.75H131.25ZM157.5 192.5H52.5V297.5H157.5V192.5ZM271.25 78.75V131.25H218.75V78.75H271.25ZM297.5 52.5H192.5V157.5H297.5V52.5ZM192.5 192.5H218.75V218.75H192.5V192.5ZM218.75 218.75H245V245H218.75V218.75ZM245 192.5H271.25V218.75H245V192.5ZM192.5 245H218.75V271.25H192.5V245ZM218.75 271.25H245V297.5H218.75V271.25ZM245 245H271.25V271.25H245V245ZM271.25 218.75H297.5V245H271.25V218.75ZM271.25 271.25H297.5V297.5H271.25V271.25ZM350 87.5H329V20H262.5V0H350V87.5ZM350 350V262.5H329V330H262.5V350H350ZM0 350H87.5V330H20V262.5H0V350ZM0 0V87.5H20V20H87.5V0H0Z" fill="black"/>
</svg>
