<svg width="36" height="39" viewBox="0 0 36 39" fill="none" xmlns="http://www.w3.org/2000/svg">
<path d="M16.3605 38.2507C19.2455 38.2507 21.659 36.194 22.2132 33.4717H10.5078C11.0623 36.194 13.4757 38.2507 16.3605 38.2507Z" fill="#1BAFF9"/>
<path d="M27.5306 19.1325C27.5242 19.1325 27.5178 19.1339 27.5114 19.1339C21.3641 19.1339 16.3605 14.1318 16.3605 7.98308C16.3605 6.29276 16.7493 4.69491 17.4263 3.25806C17.0757 3.22481 16.7204 3.2041 16.3605 3.2041C10.2021 3.2041 5.20966 8.1963 5.20966 14.355V18.7962C5.20966 21.9487 3.82853 24.9245 1.40549 26.973C0.597815 27.6628 0.239334 28.7619 0.529269 29.8341C0.867041 31.0814 2.1 31.878 3.39362 31.878H29.3195C30.6767 31.878 31.9561 30.9985 32.2314 29.6685C32.4449 28.6394 32.0786 27.6118 31.2805 26.9412C28.9642 24.9994 27.6245 22.1462 27.5306 19.1325Z" fill="#1BAFF9"/>
<path d="M27.5306 19.1325C27.5242 19.1325 27.5178 19.1339 27.5114 19.1339C21.3641 19.1339 16.3605 14.1318 16.3605 7.98308C16.3605 6.29276 16.7493 4.69491 17.4263 3.25806C17.0757 3.22481 16.7204 3.2041 16.3605 3.2041C10.2021 3.2041 5.20966 8.1963 5.20966 14.355V18.7962C5.20966 21.9487 3.82853 24.9245 1.40549 26.973C0.597815 27.6628 0.239334 28.7619 0.529269 29.8341C0.867041 31.0814 2.1 31.878 3.39362 31.878H29.3195C30.6767 31.878 31.9561 30.9985 32.2314 29.6685C32.4449 28.6394 32.0786 27.6118 31.2805 26.9412C28.9642 24.9994 27.6245 22.1462 27.5306 19.1325Z" fill="#1BAFF9"/>
<path d="M35.4772 7.98361C35.4772 12.3825 31.9113 15.9484 27.5121 15.9484C23.1132 15.9484 19.5474 12.3825 19.5474 7.98361C19.5474 3.5847 23.1132 0.0185547 27.5121 0.0185547C31.9113 0.0185547 35.4772 3.5847 35.4772 7.98361Z" fill="#FF0000"/>
</svg>
