<svg width="22" height="22" viewBox="0 0 22 22" fill="none" xmlns="http://www.w3.org/2000/svg">
<path fill-rule="evenodd" clip-rule="evenodd" d="M2 8.5C1.17157 8.5 0.5 7.82843 0.5 7V5L0.49999 4.91838C0.499864 4.28228 0.499743 3.66409 0.568293 3.15422C0.645574 2.57942 0.833856 1.9235 1.37868 1.37868L2.43934 2.43934L1.37868 1.37868C1.9235 0.833856 2.57942 0.645574 3.15422 0.568293C3.66409 0.499743 4.28228 0.499864 4.91838 0.49999L5 0.5H7C7.82843 0.5 8.5 1.17157 8.5 2C8.5 2.82843 7.82843 3.5 7 3.5H5C4.25049 3.5 3.83925 3.50319 3.55396 3.54154L3.54304 3.54304L3.54154 3.55396C3.50319 3.83925 3.5 4.25049 3.5 5V7C3.5 7.82843 2.82843 8.5 2 8.5ZM2 13.5C1.17157 13.5 0.5 14.1716 0.5 15V17L0.49999 17.0816C0.499864 17.7177 0.499743 18.3359 0.568293 18.8458C0.645574 19.4206 0.833856 20.0765 1.37868 20.6213L2.43934 19.5607L1.37868 20.6213C1.9235 21.1661 2.57942 21.3544 3.15422 21.4317C3.66408 21.5003 4.28225 21.5001 4.91834 21.5H4.91838L5 21.5H7C7.82843 21.5 8.5 20.8284 8.5 20C8.5 19.1716 7.82843 18.5 7 18.5H5C4.25049 18.5 3.83925 18.4968 3.55396 18.4585L3.54304 18.457L3.54154 18.446C3.50319 18.1607 3.5 17.7495 3.5 17V15C3.5 14.1716 2.82843 13.5 2 13.5ZM21.5 7C21.5 7.82843 20.8284 8.5 20 8.5C19.1716 8.5 18.5 7.82843 18.5 7V5C18.5 4.25049 18.4968 3.83925 18.4585 3.55396L18.457 3.54304L18.446 3.54154C18.1607 3.50319 17.7495 3.5 17 3.5H15C14.1716 3.5 13.5 2.82843 13.5 2C13.5 1.17157 14.1716 0.5 15 0.5H17L17.0816 0.49999C17.7177 0.499864 18.3359 0.499743 18.8458 0.568293C19.4206 0.645574 20.0765 0.833856 20.6213 1.37868L19.5607 2.43934L20.6213 1.37868C21.1661 1.9235 21.3544 2.57942 21.4317 3.15422C21.5003 3.66408 21.5001 4.28225 21.5 4.91834V4.91838L21.5 5V7ZM20 13.5C20.8284 13.5 21.5 14.1716 21.5 15V17L21.5 17.0816V17.0817C21.5001 17.7177 21.5003 18.3359 21.4317 18.8458C21.3544 19.4206 21.1661 20.0765 20.6213 20.6213C20.0765 21.1661 19.4206 21.3544 18.8458 21.4317C18.3359 21.5003 17.7177 21.5001 17.0817 21.5H17.0816L17 21.5H15C14.1716 21.5 13.5 20.8284 13.5 20C13.5 19.1716 14.1716 18.5 15 18.5H17C17.7495 18.5 18.1607 18.4968 18.446 18.4585L18.457 18.457L18.4585 18.446C18.4968 18.1607 18.5 17.7495 18.5 17V15C18.5 14.1716 19.1716 13.5 20 13.5ZM8.85227 11.8409H7.625L8.27508 12.7018C8.24461 12.7036 8.21352 12.7045 8.18182 12.7045C7.92045 12.7045 7.69981 12.643 7.51989 12.5199C7.34186 12.3949 7.20644 12.2131 7.11364 11.9744C7.02273 11.7339 6.97727 11.4394 6.97727 11.0909C6.97727 10.7424 7.02273 10.4489 7.11364 10.2102C7.20644 9.9697 7.34186 9.78788 7.51989 9.66477C7.69981 9.53977 7.92045 9.47727 8.18182 9.47727C8.44318 9.47727 8.66288 9.53977 8.84091 9.66477C9.02083 9.78788 9.15625 9.9697 9.24716 10.2102C9.33996 10.4489 9.38636 10.7424 9.38636 11.0909C9.38636 11.4394 9.33996 11.7339 9.24716 11.9744C9.21599 12.0562 9.17959 12.1314 9.13796 12.1998L8.85227 11.8409ZM10.1391 13.3632C10.3304 13.1844 10.4952 12.9734 10.6335 12.7301C10.8854 12.285 11.0114 11.7386 11.0114 11.0909C11.0114 10.4432 10.8854 9.89773 10.6335 9.45455C10.3816 9.00947 10.0417 8.6733 9.61364 8.44602C9.18561 8.21686 8.70833 8.10227 8.18182 8.10227C7.65152 8.10227 7.17235 8.21686 6.74432 8.44602C6.31818 8.6733 5.97917 9.00947 5.72727 9.45455C5.47727 9.89773 5.35227 10.4432 5.35227 11.0909C5.35227 11.7348 5.47727 12.2794 5.72727 12.7244C5.97917 13.1676 6.31818 13.5047 6.74432 13.7358C7.17235 13.965 7.65152 14.0795 8.18182 14.0795C8.53964 14.0795 8.87473 14.0271 9.18706 13.9221L9.625 14.4318H11.0227L10.1391 13.3632ZM14.2614 8.18182H11.75V14H13.3295V12.0795H13.8762L14.8977 14H16.6136L15.4321 11.8307C15.7339 11.6859 15.9706 11.48 16.142 11.2131C16.3277 10.9271 16.4205 10.5758 16.4205 10.1591C16.4205 9.74621 16.3305 9.39205 16.1506 9.09659C15.9706 8.80114 15.7188 8.57481 15.3949 8.41761C15.071 8.26042 14.6932 8.18182 14.2614 8.18182ZM13.3295 10.8523H13.8864C14.072 10.8523 14.2301 10.8295 14.3608 10.7841C14.4934 10.7367 14.5947 10.6619 14.6648 10.5597C14.7367 10.4574 14.7727 10.3239 14.7727 10.1591C14.7727 9.99242 14.7367 9.85701 14.6648 9.75284C14.5947 9.64678 14.4934 9.56913 14.3608 9.51989C14.2301 9.46875 14.072 9.44318 13.8864 9.44318H13.3295V10.8523Z" fill="#1BAFF9"/>
</svg>
