<svg width="205" height="85" viewBox="0 0 205 85" fill="none" xmlns="http://www.w3.org/2000/svg">
<path d="M31.2995 12.2967H20.1096C19.5207 16.6549 18.5195 20.11 17.106 22.6621L5.62163 21.9553C3.8548 18.8928 2.97139 14.142 2.97139 7.70293C2.97139 5.03306 3.24623 2.53987 3.79591 0.223363H62.5724L63.7502 9.76423L28.7671 62.239C26.5683 65.6156 24.3107 68.2658 21.9942 70.1897L20.6986 71.132L21.2875 72.4866C24.8997 71.7406 28.8456 71.3676 33.1252 71.3676H47.8488C48.3592 67.0094 49.3604 63.5543 50.8524 61.0022L62.3368 61.7089C64.1036 64.7714 64.987 69.5222 64.987 75.9614C64.987 78.7097 64.6925 81.2029 64.1036 83.4409H1.8524L0.674511 73.9001L35.6577 21.4253C37.8564 18.0487 40.1533 15.3984 42.5483 13.4746L43.7262 12.5323L43.1373 11.1777C39.5251 11.9237 35.5792 12.2967 31.2995 12.2967ZM99.7935 84.3832C90.1349 84.3832 82.8712 81.8115 78.0026 76.6681C73.1341 71.5247 70.6998 64.0451 70.6998 54.2294C70.6998 48.3007 71.5439 43.1965 73.2322 38.9169C74.9205 34.598 77.2174 31.2606 80.1228 28.9049C85.7374 24.4289 92.2943 22.1909 99.7935 22.1909C104.78 22.1909 108.981 23.0154 112.397 24.6645C115.852 26.2742 118.463 29.003 120.23 32.8508C122.036 36.6593 122.939 41.8616 122.939 48.4577C122.939 54.2686 120.073 57.1741 114.34 57.1741H88.1913C88.5054 62.239 89.8011 65.8119 92.0784 67.8928C94.3949 69.9738 98.0463 71.0142 103.033 71.0142C105.742 71.0142 108.333 70.7001 110.807 70.0719C113.32 69.4045 115.145 68.7566 116.284 68.1284L117.992 67.1861L121.584 76.7859C121.152 77.2963 120.465 78.003 119.523 78.9061C118.895 79.495 117.619 80.2214 115.695 81.0851C113.771 81.9489 111.415 82.7146 108.628 83.382C105.879 84.0495 102.935 84.3832 99.7935 84.3832ZM88.3091 47.1621L107.391 46.3964C107.548 45.4149 107.626 44.0603 107.626 42.3327C107.626 40.723 106.979 39.015 105.683 37.2089C104.387 35.4029 102.149 34.4998 98.969 34.4998C95.7887 34.4998 93.3544 35.4617 91.6661 37.3856C89.9778 39.3095 88.8588 42.5683 88.3091 47.1621ZM129.358 32.4385L130.536 23.1332C135.091 22.0731 139.292 21.5431 143.14 21.5431C145.064 21.5431 146.83 21.5823 148.44 21.6609C150.05 21.7001 151.522 21.7983 152.857 21.9553V70.0719C155.998 71.2498 158.217 72.6044 159.512 74.1356L158.334 83.4409H130.536L129.358 74.1356C130.458 72.6044 132.676 71.2498 136.013 70.0719V36.5022C133.147 35.5599 130.929 34.2053 129.358 32.4385ZM177.475 7.93851H186.25V23.1332H203.506V33.263H186.25V63.7702C186.25 66.4009 186.623 68.2658 187.369 69.3652C187.919 70.229 188.94 70.7787 190.432 71.0142C191.963 71.2105 193.71 71.1517 195.673 70.8376C197.636 70.5234 199.521 70.013 201.327 69.3063L204.979 78.7294C198.775 81.8704 192.434 83.4409 185.956 83.4409C179.477 83.4409 175.1 82.0667 172.822 79.3183C170.545 76.5307 169.407 72.4866 169.407 67.1861V33.263H163.988L162.634 25.9012C163.929 24.37 166.58 22.8387 170.584 21.3075C171.605 14.6721 173.902 10.2158 177.475 7.93851Z" fill="black"/>
</svg>
